<?xml version="1.0" standalone="no"?>
<!DOCTYPE svg PUBLIC "-//W3C//DTD SVG 20010904//EN"
 "http://www.w3.org/TR/2001/REC-SVG-20010904/DTD/svg10.dtd">
<svg version="1.0" xmlns="http://www.w3.org/2000/svg"
 width="837.000000pt" height="279.000000pt" viewBox="0 0 837.000000 279.000000"
 preserveAspectRatio="xMidYMid meet">

<g transform="translate(0.000000,279.000000) scale(0.100000,-0.100000)"
fill="#000000" stroke="none">
<path d="M6068 2764 c-64 -34 -34 -110 49 -121 68 -9 133 40 118 87 -14 45
-111 65 -167 34z"/>
<path d="M71 2751 c-21 -21 -21 -26 -21 -446 0 -412 1 -426 20 -445 15 -15 33
-20 73 -20 92 0 87 -24 89 378 l3 353 199 -281 c110 -155 208 -286 217 -291
24 -12 83 -11 111 2 13 5 113 132 223 281 l200 271 5 -347 c4 -294 7 -348 20
-356 20 -13 117 -13 141 0 18 10 19 26 19 449 0 365 -2 441 -14 450 -42 35
-176 18 -229 -29 -18 -16 -115 -143 -217 -284 -101 -141 -186 -256 -189 -256
-3 0 -91 121 -196 268 -219 308 -224 312 -356 320 -68 4 -79 2 -98 -17z"/>
<path d="M3513 2760 l-23 -9 0 -445 c0 -430 1 -446 19 -456 25 -13 92 -13 125
0 l26 10 0 165 0 165 95 0 c169 0 246 -32 301 -126 23 -39 29 -62 32 -131 4
-80 6 -85 31 -95 32 -12 106 -5 127 13 23 19 14 158 -14 221 -41 93 -146 175
-248 194 -21 3 -43 9 -47 11 -4 3 65 54 153 115 142 97 160 112 147 125 -23
23 -78 31 -127 18 -28 -7 -113 -58 -224 -133 -103 -70 -189 -122 -203 -122
l-23 0 0 228 c0 125 -4 233 -9 240 -10 16 -108 25 -138 12z"/>
<path d="M5573 2710 c-22 -9 -23 -15 -23 -110 l0 -100 -36 0 c-51 0 -74 -15
-74 -50 0 -35 23 -50 74 -50 l36 0 0 -270 0 -270 28 -11 c35 -14 122 -6 133
12 5 8 9 132 9 277 l0 262 81 0 c95 0 119 10 119 48 0 45 -16 52 -112 52 l-88
0 0 100 c0 99 0 101 -26 110 -31 12 -91 12 -121 0z"/>
<path d="M1895 2516 c-115 -29 -195 -89 -243 -181 -23 -43 -26 -63 -27 -140 0
-79 4 -97 28 -146 66 -135 207 -209 397 -209 100 0 165 17 233 59 l47 31 0
-40 c0 -35 4 -42 28 -51 34 -13 112 -6 123 12 5 8 9 156 9 330 0 282 -2 318
-17 330 -23 20 -506 24 -578 5z m415 -243 c0 -93 -5 -186 -10 -208 -23 -103
-192 -164 -334 -121 -65 20 -106 54 -141 117 -54 100 -35 237 44 313 53 51
117 65 289 66 l152 0 0 -167z"/>
<path d="M3008 2511 c-31 -10 -70 -28 -86 -40 -38 -27 -42 -26 -42 4 0 33 -38
48 -102 42 -82 -7 -78 10 -78 -342 0 -270 2 -314 15 -325 16 -14 125 -17 144
-5 7 4 11 71 11 194 0 221 10 267 67 323 54 51 98 70 176 76 51 4 77 0 107
-13 49 -22 104 -14 126 20 21 33 5 61 -44 75 -61 16 -229 11 -294 -9z"/>
<path d="M4715 2520 c-171 -36 -276 -125 -311 -261 -50 -197 66 -356 294 -405
86 -18 248 -18 334 0 128 28 236 101 254 172 9 35 -7 44 -83 44 -61 0 -62 -1
-98 -44 -57 -70 -109 -90 -235 -90 -124 -1 -187 22 -244 85 -29 32 -65 114
-54 124 2 2 156 8 343 15 187 6 349 15 361 20 20 8 20 12 12 77 -12 88 -43
140 -111 187 -82 57 -161 78 -302 82 -66 2 -138 -1 -160 -6z m304 -117 c55
-28 101 -79 101 -113 0 -19 -40 -23 -372 -36 -160 -6 -168 -6 -168 12 0 22 35
83 59 102 65 51 141 72 245 67 62 -3 91 -9 135 -32z"/>
<path d="M6482 2520 l-22 -9 2 -333 3 -333 38 -9 c23 -6 51 -6 75 0 l37 9 3
298 2 297 159 0 c226 0 286 -23 346 -131 l30 -54 3 -203 c4 -231 3 -228 93
-220 83 8 82 4 76 233 -3 125 -9 213 -17 235 -34 92 -105 161 -209 202 -53 21
-72 23 -326 25 -154 1 -280 -2 -293 -7z"/>
<path d="M7775 2516 c-115 -29 -205 -99 -248 -195 -16 -34 -21 -67 -22 -127 0
-73 3 -88 35 -149 41 -81 108 -141 197 -176 50 -20 76 -23 188 -24 137 0 131
-2 258 63 14 7 7 -90 -9 -124 -34 -71 -123 -104 -278 -104 -122 1 -165 10
-217 45 -33 23 -46 27 -85 22 -29 -3 -54 -13 -68 -26 l-21 -22 31 -28 c116
-104 495 -121 677 -30 51 26 94 64 114 103 39 75 43 113 43 437 0 282 -2 318
-17 330 -23 19 -505 24 -578 5z m417 -251 c-4 -205 -11 -234 -60 -275 -103
-86 -301 -76 -390 18 -92 99 -81 298 22 377 60 45 105 54 276 52 l155 -2 -3
-170z"/>
<path d="M6066 2504 c-14 -13 -16 -57 -16 -322 0 -169 4 -313 9 -321 11 -18
98 -26 134 -12 l27 11 0 319 c0 306 -1 321 -19 331 -31 16 -117 12 -135 -6z"/>
<path d="M117 1426 c-21 -8 -47 -22 -59 -33 -49 -44 -48 -32 -48 -676 l0 -604
23 -33 c12 -19 38 -43 57 -54 l35 -21 4060 0 c3834 0 4062 1 4092 17 17 10 42
32 55 50 l23 33 0 615 0 615 -23 33 c-13 18 -38 40 -55 50 -30 16 -259 17
-4077 19 -3394 2 -4051 0 -4083 -11z m2244 -75 c21 -17 23 -29 30 -160 6 -100
16 -174 34 -249 15 -59 29 -110 31 -114 2 -3 42 9 89 28 83 33 86 34 122 19
75 -32 93 -70 47 -99 -14 -10 -64 -32 -112 -51 -54 -21 -86 -39 -84 -47 10
-44 54 -127 126 -233 126 -187 132 -215 49 -215 -28 0 -58 7 -70 15 -29 20
-79 111 -149 267 -31 67 -57 124 -59 126 -2 2 -16 -3 -32 -11 -34 -17 -151
-50 -254 -72 l-77 -16 -50 -107 c-27 -59 -57 -132 -66 -162 -21 -72 -55 -131
-87 -149 -38 -21 -76 -7 -96 34 -16 34 -16 37 6 88 13 28 38 91 56 138 18 47
40 100 49 118 17 31 16 33 -6 51 l-23 18 23 47 c18 37 31 50 62 62 54 22 105
111 236 412 121 278 146 310 205 262z m491 -8 c37 -44 41 -82 48 -438 5 -309
9 -362 29 -455 12 -58 28 -126 36 -151 23 -72 19 -93 -21 -129 -20 -17 -43
-30 -52 -28 -9 2 -28 34 -44 73 -26 64 -28 77 -22 150 3 48 1 98 -5 125 -7 25
-16 191 -21 370 -5 179 -15 358 -21 397 -9 58 -9 76 1 88 17 20 53 19 72 -2z
m431 -221 c12 -21 22 -60 25 -103 2 -38 7 -69 11 -69 3 0 40 13 81 30 84 33
118 37 126 15 9 -23 -8 -38 -105 -94 -49 -28 -93 -57 -98 -63 -12 -16 -34
-396 -26 -460 l5 -47 72 36 c60 30 274 148 342 189 12 7 36 38 54 70 63 113
170 197 335 264 199 81 281 77 377 -19 59 -59 77 -98 61 -134 -10 -22 -382
-252 -538 -333 -43 -23 -81 -46 -83 -52 -4 -13 53 -31 126 -39 67 -8 248 14
332 39 36 11 125 51 199 89 73 38 143 69 154 69 17 0 19 -5 14 -41 -15 -111
-97 -162 -348 -215 -193 -41 -362 -53 -462 -34 -139 26 -217 104 -217 218 l0
55 -50 -47 c-42 -40 -316 -226 -388 -265 -13 -7 -34 -10 -47 -7 -44 11 -49 46
-41 338 5 218 4 268 -6 262 -125 -78 -151 -87 -162 -58 -20 52 11 103 89 149
36 20 69 42 74 49 5 6 11 57 13 112 4 104 16 138 47 132 8 -2 24 -18 34 -36z
m2628 -192 c10 -6 26 -24 34 -41 33 -63 129 -386 167 -561 13 -59 -2 -102 -43
-123 -62 -33 -61 -35 -84 170 -25 226 -62 360 -119 430 -16 19 -18 18 -84 -52
-72 -74 -132 -175 -158 -264 -30 -100 -44 -197 -34 -225 7 -19 7 -37 -1 -61
-10 -31 -14 -34 -47 -31 -36 3 -37 4 -51 63 -16 75 -25 588 -10 616 35 66 91
-38 101 -186 l3 -40 54 85 c121 191 202 257 272 220z m-521 -59 c34 -24 37
-56 8 -75 -13 -8 -81 -29 -153 -46 -300 -73 -372 -137 -345 -307 6 -37 20
-105 32 -151 11 -45 19 -84 17 -86 -2 -2 -20 -6 -40 -10 -60 -11 -84 17 -97
111 -18 125 -22 259 -12 395 11 151 18 170 63 166 30 -3 32 -6 41 -58 5 -30
10 -56 11 -58 2 -2 45 20 98 48 107 57 261 103 317 94 19 -3 46 -13 60 -23z
m1389 -21 c41 -11 88 -20 104 -20 86 0 176 -62 196 -135 49 -179 -81 -315
-403 -420 -204 -67 -343 -78 -415 -34 -46 28 -75 97 -68 164 9 92 47 148 189
287 187 183 234 201 397 158z"/>
<path d="M2222 968 c-54 -118 -113 -270 -108 -275 4 -5 108 24 161 45 l50 20
-3 74 c-3 92 -19 196 -36 226 -12 22 -15 16 -64 -90z"/>
<path d="M4205 812 c-61 -22 -126 -47 -145 -57 -63 -32 -138 -95 -174 -148
-32 -48 -64 -142 -52 -155 13 -12 108 37 232 119 74 49 170 107 213 128 78 40
141 85 141 102 0 5 -10 15 -22 23 -47 29 -79 27 -193 -12z"/>
<path d="M6740 740 c-65 -9 -98 -21 -147 -54 -28 -19 -40 -23 -55 -15 -27 15
-52 3 -102 -48 -83 -84 -160 -220 -149 -264 14 -54 168 -52 337 5 295 99 440
235 343 324 -52 47 -128 65 -227 52z"/>
</g>
</svg>
